<svg width="491" height="530" viewBox="0 0 491 530" fill="none" xmlns="http://www.w3.org/2000/svg">
<path d="M375.074 441V401C375.074 387.468 364.106 376.5 350.574 376.5C337.042 376.5 326.074 387.468 326.074 401V441C326.074 460.569 310.144 476.5 290.574 476.5H89.5742C70.0048 476.5 54.0742 460.569 54.0742 441V89C54.0742 69.4306 70.0048 53.5 89.5742 53.5H290.574C310.144 53.5 326.074 69.4306 326.074 89V129C326.074 142.532 337.042 153.5 350.574 153.5C364.106 153.5 375.074 142.532 375.074 129V89C375.074 42.4014 337.173 4.5 290.574 4.5H89.5742C42.9757 4.5 5.07422 42.4014 5.07422 89V441C5.07422 487.599 42.9757 525.5 89.5742 525.5H290.574C337.173 525.5 375.074 487.599 375.074 441Z" fill="#0D6EFD" stroke="#0D6EFD" stroke-width="9"/>
<path d="M431.57 184.859L476.355 229.645C495.852 249.141 495.852 280.859 476.355 300.355L431.57 345.141C427.664 349.047 422.547 351 417.426 351C412.309 351 407.191 349.047 403.285 345.141C395.473 337.332 395.473 324.668 403.285 316.859L435.141 285H195C183.953 285 175 276.047 175 265C175 253.953 183.953 245 195 245H260H435.141L403.285 213.141C395.473 205.332 395.473 192.668 403.285 184.859C411.094 177.047 423.758 177.047 431.57 184.859Z" fill="#0D6EFD"/>
<path d="M431.57 184.859L476.355 229.645C495.852 249.141 495.852 280.859 476.355 300.355L431.57 345.141C427.664 349.047 422.547 351 417.426 351C412.309 351 407.191 349.047 403.285 345.141C395.473 337.332 395.473 324.668 403.285 316.859L435.141 285H195C183.953 285 175 276.047 175 265C175 253.953 183.953 245 195 245H260H435.141L403.285 213.141C395.473 205.332 395.473 192.668 403.285 184.859C411.094 177.047 423.758 177.047 431.57 184.859Z" stroke="#0D6EFD"/>
</svg>
